<?xml version="1.0" encoding="utf-8"?>
<!-- Generator: Adobe Illustrator 28.2.0, SVG Export Plug-In . SVG Version: 6.00 Build 0)  -->
<svg version="1.1" id="Layer_1" xmlns="http://www.w3.org/2000/svg" xmlns:xlink="http://www.w3.org/1999/xlink" x="0px" y="0px"
	 viewBox="0 0 1000 1000" style="enable-background:new 0 0 1000 1000;" xml:space="preserve">
<style type="text/css">
	.st0{fill:#B671FF;}
</style>
<rect width="1000" height="1000"/>
<g>
	<path class="st0" d="M167.61,556.22c1.39-13.46,2.35-24.26,2.88-32.42c0.79-12.06,1.56-28.65,2.28-49.77
		c0.73-21.11,1.09-35.32,1.09-42.61v-10.94c19.95,0.13,38.52,0.2,55.69,0.2c17.3,0,33.94-0.07,49.92-0.2
		c-1.06,15.25-1.59,25.23-1.59,29.93l-8.65-0.3l-6.96-0.1l-6.96-0.1h-19.59c-2.25,0-8.85,0.07-19.79,0.2l-0.89,23.17l14.42,0.3
		h16.11c4.64,0,11.73-0.1,21.28-0.3c-0.73,12.53-1.09,22.34-1.09,29.43c-10.66-0.33-18.57-0.5-23.73-0.5
		c-8.74,0-18.27,0.17-28.59,0.5l-1.03,35.8l-0.1,13.33v4.38l-21.4-0.2C189.24,556.02,181.47,556.09,167.61,556.22z"/>
	<path class="st0" d="M293.32,511.86c0.77-4.01,1.25-6.78,1.46-8.29c0.2-1.52,0.53-3.9,0.97-7.14c11.67-2.55,21.7-3.83,30.08-3.83
		c4.78,0,9.16,0.54,13.13,1.61c3.97,1.07,7.07,2.81,9.3,5.2c2.23,2.39,3.34,5.81,3.34,10.27c0,2.27-0.3,7.37-0.91,15.31
		c-0.61,7.94-1.07,18.35-1.39,31.24c-3.97-0.08-7.92-0.12-11.86-0.12c-3.81,0-7.86,0.04-12.16,0.12c0.55-4.46,1.17-13.65,1.84-27.59
		c-1.54,0.73-2.74,1.26-3.61,1.58c-0.87,0.32-2.4,0.81-4.58,1.46c-2.18,0.65-3.89,1.2-5.12,1.64c-1.23,0.45-2.3,1.01-3.21,1.7
		c-0.91,0.69-1.56,1.4-1.94,2.13c-0.38,0.73-0.58,1.54-0.58,2.43c0,1.38,0.55,2.55,1.64,3.52c1.09,0.97,2.84,1.46,5.23,1.46
		c0.85,0,1.76-0.07,2.73-0.21s2.31-0.5,4.01-1.06c-1.18,3.12-2.57,7.68-4.19,13.67c-3.48,0.57-6.79,0.85-9.91,0.85
		c-5.02,0-9.21-0.7-12.55-2.1s-5.92-3.66-7.72-6.78c-1.8-3.12-2.7-6.24-2.7-9.36c0-1.9,0.33-3.77,1-5.59s1.71-3.61,3.13-5.35
		c1.42-1.74,3.08-3.23,4.98-4.47c1.9-1.24,4.51-2.4,7.81-3.49c3.3-1.09,7.48-2.13,12.54-3.1c2.11-0.41,4.04-0.84,5.8-1.31
		c1.76-0.47,3.02-0.87,3.77-1.22c0.75-0.34,1.36-0.75,1.82-1.21s0.8-0.95,1-1.46c0.2-0.51,0.3-1.04,0.3-1.61
		c0-1.54-0.65-2.72-1.94-3.55c-1.3-0.83-3.2-1.25-5.71-1.25C312.17,505.97,303.56,507.93,293.32,511.86z"/>
	<path class="st0" d="M414.74,536.84c-0.2,1.62-0.69,4.6-1.46,8.93l-1.58,9.72c-6.36,1.54-12.58,2.31-18.66,2.31
		c-4.42,0-8.29-0.45-11.61-1.34c-3.93-1.05-7.45-2.92-10.57-5.59c-3.2-2.75-5.53-6.02-6.99-9.78c-1.74-4.42-2.61-9.36-2.61-14.83
		c0-5.02,0.85-9.86,2.55-14.52c1.7-4.66,4.21-8.5,7.54-11.52c3.32-3.02,7.01-5.04,11.06-6.08c4.05-1.03,8.53-1.55,13.43-1.55
		c2.88,0,5.77,0.15,8.69,0.46c2.92,0.3,6.52,0.96,10.82,1.98l0.12,1.4c0.12,1.46,0.21,2.95,0.27,4.47c0.06,1.52,0.19,3.92,0.4,7.2
		l0.36,5.41c-5.79-2.03-10.92-3.04-15.37-3.04c-3.2,0-6.01,0.62-8.42,1.85c-2.41,1.24-4.19,3.02-5.35,5.35
		c-1.15,2.33-1.73,5.03-1.73,8.11c0,3.12,0.52,5.73,1.55,7.84s2.68,3.69,4.95,4.74c2.27,1.05,4.76,1.58,7.47,1.58
		c1.38,0,3.01-0.14,4.89-0.42c1.88-0.28,3.52-0.6,4.92-0.94C410.82,538.23,412.59,537.65,414.74,536.84z"/>
	<path class="st0" d="M486.08,537.87c-0.53,2.43-1.54,8.31-3.04,17.62c-4.7,0.93-8.65,1.55-11.85,1.85c-3.2,0.3-6.44,0.46-9.72,0.46
		c-4.82,0-9.26-0.33-13.31-1c-4.05-0.67-7.55-1.85-10.48-3.55c-2.94-1.7-5.4-3.82-7.38-6.34c-1.99-2.53-3.49-5.54-4.53-9.02
		c-1.03-3.48-1.55-7.06-1.55-10.75c0-5.18,1.03-10.25,3.1-15.21c2.07-4.96,4.73-8.83,7.99-11.63c3.26-2.79,7.02-4.78,11.27-5.95
		c4.25-1.17,8.61-1.76,13.07-1.76c4.62,0,9.02,0.54,13.22,1.61c4.19,1.07,7.75,2.95,10.67,5.62c2.92,2.67,4.99,5.69,6.23,9.05
		c1.24,3.36,1.85,6.99,1.85,10.88c0,2.31-0.26,4.88-0.79,7.72l-42.6,0.06c-0.04,0.65-0.06,1.23-0.06,1.75
		c0,4.36,1.56,7.56,4.68,9.62c3.12,2.06,6.93,3.09,11.42,3.09c2.67,0,5.72-0.31,9.15-0.94
		C476.83,540.43,481.06,539.37,486.08,537.87z M448.71,518.24h20.05c0.04-0.69,0.06-1.28,0.06-1.76c0-2.11-0.38-3.91-1.12-5.41
		c-0.75-1.5-1.82-2.59-3.22-3.28c-1.4-0.69-2.97-1.03-4.71-1.03c-1.22,0-2.39,0.19-3.52,0.58c-1.13,0.39-2.16,0.95-3.07,1.7
		s-1.67,1.61-2.28,2.58c-0.61,0.97-1.05,1.91-1.34,2.83C449.27,515.36,448.99,516.62,448.71,518.24z"/>
	<path class="st0" d="M499.2,556.22c0.65-6.04,1.12-11,1.4-14.89c0.57-8.14,1.16-17.6,1.77-28.38c0.37-7.13,0.64-13.98,0.82-20.54
		c0.18-6.56,0.27-12.94,0.27-19.14c5.14,0.08,9.33,0.12,12.57,0.12c4.37,0,8.5-0.04,12.39-0.12l-1.26,14.71
		c-0.2,2.43-0.52,7.35-0.96,14.77c1.34-1.7,2.43-2.97,3.28-3.8c0.85-0.83,1.79-1.6,2.82-2.31c1.03-0.71,2.09-1.31,3.16-1.79
		c1.07-0.49,2.31-0.91,3.7-1.28c1.4-0.36,2.94-0.65,4.62-0.85c1.68-0.2,3.41-0.3,5.19-0.3c3.44,0,6.77,0.39,9.99,1.15
		c3.22,0.77,5.96,2.12,8.23,4.04c2.27,1.92,3.81,4.07,4.62,6.44s1.22,4.97,1.22,7.81c0,1.09-0.03,2.54-0.09,4.34
		c-0.06,1.8-0.19,4.08-0.39,6.84l-1.33,20.48c-0.16,2.55-0.25,4.67-0.27,6.35c-0.02,1.68-0.03,3.8-0.03,6.35
		c-4.22-0.08-8.25-0.12-12.1-0.12c-4.34,0-8.73,0.04-13.19,0.12c0.68-5.39,1.29-11.6,1.81-18.63c0.52-7.03,0.79-12.26,0.79-15.71
		c0-3.81-0.8-6.48-2.4-8.02c-1.6-1.54-3.72-2.31-6.36-2.31c-2.35,0-4.44,0.49-6.27,1.46c-1.62,0.85-3.04,2.17-4.26,3.95
		c-1.05,1.5-1.93,3.67-2.62,6.5c-0.81,3.44-1.44,8.53-1.89,15.25c-0.24,3.73-0.48,9.56-0.71,17.5c-4.09-0.08-7.91-0.12-11.47-0.12
		C508.65,556.1,504.3,556.14,499.2,556.22z"/>
	<path class="st0" d="M620.44,492.6c5.02,0,9.85,0.77,14.49,2.31c4.64,1.54,8.56,3.76,11.76,6.65s5.56,6.28,7.08,10.15
		c1.52,3.87,2.28,8.03,2.28,12.49c0,4.34-0.68,8.46-2.04,12.37c-1.36,3.91-3.66,7.58-6.9,11c-3.24,3.42-7.36,5.99-12.37,7.69
		c-5,1.7-10.3,2.55-15.89,2.55c-5.15,0-10.09-0.75-14.83-2.25c-4.74-1.5-8.7-3.69-11.88-6.56c-3.18-2.88-5.57-6.32-7.17-10.33
		c-1.6-4.01-2.4-8.22-2.4-12.64c0-4.42,0.78-8.63,2.34-12.64s4.03-7.62,7.41-10.82c3.38-3.2,7.57-5.66,12.55-7.38
		C609.87,493.46,615.05,492.6,620.44,492.6z M620.01,510.46c-2.59,0-4.9,0.67-6.93,2c-2.03,1.34-3.56,3.29-4.59,5.86
		c-1.03,2.57-1.55,5.38-1.55,8.42c0,4.46,1.11,7.87,3.34,10.24c2.23,2.37,5.02,3.55,8.39,3.55c2.55,0,4.84-0.68,6.87-2.04
		c2.03-1.36,3.55-3.36,4.59-6.02c1.03-2.65,1.55-5.5,1.55-8.54c0-2.51-0.41-4.78-1.21-6.81c-0.81-2.03-2.14-3.65-3.98-4.86
		C624.64,511.07,622.48,510.46,620.01,510.46z"/>
	<path class="st0" d="M701.2,492.6c5.02,0,9.85,0.77,14.49,2.31c4.64,1.54,8.56,3.76,11.76,6.65s5.56,6.28,7.08,10.15
		c1.52,3.87,2.28,8.03,2.28,12.49c0,4.34-0.68,8.46-2.04,12.37c-1.36,3.91-3.66,7.58-6.9,11c-3.24,3.42-7.36,5.99-12.37,7.69
		c-5,1.7-10.3,2.55-15.89,2.55c-5.15,0-10.09-0.75-14.83-2.25c-4.74-1.5-8.7-3.69-11.88-6.56c-3.18-2.88-5.57-6.32-7.17-10.33
		c-1.6-4.01-2.4-8.22-2.4-12.64c0-4.42,0.78-8.63,2.34-12.64s4.03-7.62,7.41-10.82c3.38-3.2,7.57-5.66,12.55-7.38
		C690.63,493.46,695.81,492.6,701.2,492.6z M700.78,510.46c-2.59,0-4.9,0.67-6.93,2c-2.03,1.34-3.56,3.29-4.59,5.86
		c-1.03,2.57-1.55,5.38-1.55,8.42c0,4.46,1.11,7.87,3.34,10.24c2.23,2.37,5.02,3.55,8.39,3.55c2.55,0,4.84-0.68,6.87-2.04
		c2.03-1.36,3.55-3.36,4.59-6.02c1.03-2.65,1.55-5.5,1.55-8.54c0-2.51-0.41-4.78-1.21-6.81c-0.81-2.03-2.14-3.65-3.98-4.86
		C705.4,511.07,703.25,510.46,700.78,510.46z"/>
	<path class="st0" d="M745.5,556.22c0.56-5.19,0.97-9.4,1.21-12.64c0.32-4.42,0.64-9.95,0.96-16.59l0.66-14.4
		c0.28-6.52,0.48-12.76,0.6-18.72c0.16-7.13,0.24-14,0.24-20.6c5.68,0.08,9.94,0.12,12.78,0.12c3.29,0,7.18-0.04,11.68-0.12
		c-0.94,10.61-1.79,23.8-2.57,39.56c-0.77,15.76-1.16,30.22-1.16,43.39c-4.7-0.08-8.66-0.12-11.9-0.12
		C754.28,556.1,750.11,556.14,745.5,556.22z M772.3,521.31l10.45-15.05l7.84-12.08c5.59,0.08,9.82,0.12,12.7,0.12
		c3.97,0,8.67-0.04,14.1-0.12L805.3,509.9c-2.84,3.6-5.73,7.49-8.69,11.65c2.83,5.23,9.66,16.79,20.48,34.67
		c-4.74-0.08-9.01-0.12-12.82-0.12c-3.89,0-8.35,0.04-13.37,0.12l-3.77-7.6c-1.34-2.64-2.49-4.85-3.46-6.63
		c-0.36-0.73-3.14-5.7-8.33-14.9L772.3,521.31z"/>
</g>
</svg>
